# xmcd
#
# Track frame offsets:
#	150
#	11236
#	22843
#	37997
#	55244
#	65449
#	79851
#	97362
#	111091
#	121699
#	140307
#	153813
#	171519
#	190759
#
# Disc length: 2701 seconds
#
# Revision: 0
# Processed by: cddbd v1.5.2PL0 Copyright (c) Steve Scherf et al.
# Submitted via: EasyCDDAExtractor 16.0.6.1
#
DISCID=b20a8b0e
DTITLE=Συλλογικός δίσκος - Εν κινήσει-Γ. Μαρκόπουλος
DYEAR=2003
DGENRE=Έντεχνη λαϊκή
TTITLE0=Άνευ ερμηνευτού - Ο χορός του λαού [ορχηστρικό]
TTITLE1=Μαρκόπουλος Γιάννης - Ζάβαρα-Κάτρα-Νέμια
TTITLE2=Γλυκερία - Κάτω στης Μαργαρίτας τ' αλωνάκι
TTITLE3=Γαλάνη Δήμητρα - Πέρα από την θάλασσα
TTITLE4=Άνευ ερμηνευτού - Κρητικός διάκοσμος [ορχηστρικό]
TTITLE5=Μοσχολιού Βίκυ - Η θαλασσινή
TTITLE6=Ξυλούρης Νίκος - Π.Χ. (Ο γίγαντας)
TTITLE7=Δημητριάδη Μαρία - 1950 (Καφενείον ''Η Ελλάς'')
TTITLE8=Ξυλούρης Νίκος - 1944 (Ήταν ο τόπος μου βράχος και χώματα)
TTITLE9=Μοσχολιού Βίκυ - Εδώ γεννήθηκα
TTITLE10=Άνευ ερμηνευτού - Μπήκαν στην πόλη οι οχτροί
TTITLE11=Λαβίνα Βασιλική - Στέργιωσε η Αθηνά
TTITLE12=Γαργανουράκης Χαράλαμπος - Ποιος άκουσε καταμεσήμερα
TTITLE13=Άνευ ερμηνευτού - Who pays the ferryman [ορχηστρικό]
EXTD=
EXTT0=
EXTT1=
EXTT2=
EXTT3=
EXTT4=
EXTT5=
EXTT6=
EXTT7=
EXTT8=
EXTT9=
EXTT10=
EXTT11=
EXTT12=
EXTT13=
PLAYORDER=
